<?xml version="1.0" encoding="UTF-8" standalone="no"?>
<!DOCTYPE svg PUBLIC "-//W3C//DTD SVG 1.1//EN"
 "http://www.w3.org/Graphics/SVG/1.1/DTD/svg11.dtd">
<!-- Generated by graphviz version 9.0.0 (20230911.1827)
 -->
<!-- Pages: 1 -->
<svg width="285pt" height="188pt"
 viewBox="0.00 0.00 285.15 188.00" xmlns="http://www.w3.org/2000/svg" xmlns:xlink="http://www.w3.org/1999/xlink">
<g id="graph0" class="graph" transform="scale(1 1) rotate(0) translate(4 184)">
<polygon fill="white" stroke="none" points="-4,4 -4,-184 281.15,-184 281.15,4 -4,4"/>
<!-- 1 -->
<g id="node1" class="node">
<title>1</title>
<ellipse fill="none" stroke="black" cx="46.57" cy="-18" rx="27" ry="18"/>
<text text-anchor="middle" x="46.57" y="-12.57" font-family="Times New Roman,serif" font-size="14.00">3</text>
</g>
<!-- 2 -->
<g id="node2" class="node">
<title>2</title>
<ellipse fill="none" stroke="black" cx="46.57" cy="-90" rx="46.57" ry="18"/>
<text text-anchor="middle" x="46.57" y="-84.58" font-family="Times New Roman,serif" font-size="14.00">expresion</text>
</g>
<!-- 2&#45;&#45;1 -->
<g id="edge1" class="edge">
<title>2&#45;&#45;1</title>
<path fill="none" stroke="black" d="M46.57,-71.7C46.57,-60.85 46.57,-46.92 46.57,-36.1"/>
</g>
<!-- 3 -->
<g id="node3" class="node">
<title>3</title>
<ellipse fill="none" stroke="black" cx="230.57" cy="-18" rx="27" ry="18"/>
<text text-anchor="middle" x="230.57" y="-12.57" font-family="Times New Roman,serif" font-size="14.00">5</text>
</g>
<!-- 4 -->
<g id="node4" class="node">
<title>4</title>
<ellipse fill="none" stroke="black" cx="230.57" cy="-90" rx="46.57" ry="18"/>
<text text-anchor="middle" x="230.57" y="-84.58" font-family="Times New Roman,serif" font-size="14.00">expresion</text>
</g>
<!-- 4&#45;&#45;3 -->
<g id="edge2" class="edge">
<title>4&#45;&#45;3</title>
<path fill="none" stroke="black" d="M230.57,-71.7C230.57,-60.85 230.57,-46.92 230.57,-36.1"/>
</g>
<!-- 5 -->
<g id="node5" class="node">
<title>5</title>
<ellipse fill="none" stroke="black" cx="138.57" cy="-90" rx="27" ry="18"/>
<text text-anchor="middle" x="138.57" y="-84.58" font-family="Times New Roman,serif" font-size="14.00">+</text>
</g>
<!-- 6 -->
<g id="node6" class="node">
<title>6</title>
<ellipse fill="none" stroke="black" cx="138.57" cy="-162" rx="46.57" ry="18"/>
<text text-anchor="middle" x="138.57" y="-156.57" font-family="Times New Roman,serif" font-size="14.00">expresion</text>
</g>
<!-- 6&#45;&#45;2 -->
<g id="edge3" class="edge">
<title>6&#45;&#45;2</title>
<path fill="none" stroke="black" d="M118.16,-145.46C102.91,-133.86 82.17,-118.08 66.93,-106.49"/>
</g>
<!-- 6&#45;&#45;4 -->
<g id="edge5" class="edge">
<title>6&#45;&#45;4</title>
<path fill="none" stroke="black" d="M158.99,-145.46C174.24,-133.86 194.98,-118.08 210.21,-106.49"/>
</g>
<!-- 6&#45;&#45;5 -->
<g id="edge4" class="edge">
<title>6&#45;&#45;5</title>
<path fill="none" stroke="black" d="M138.57,-143.7C138.57,-132.85 138.57,-118.92 138.57,-108.1"/>
</g>
</g>
</svg>
